<?xml version="1.0"?>
<svg xmlns="http://www.w3.org/2000/svg" xmlns:xlink="http://www.w3.org/1999/xlink" xmlns:svgjs="http://svgjs.com/svgjs" version="1.1" width="512" height="512" x="0" y="0" viewBox="0 0 512.061 512.061" style="enable-background:new 0 0 512 512" xml:space="preserve" class=""><g>
<g xmlns="http://www.w3.org/2000/svg">
	<g transform="translate(1 1)">
		<path style="" d="M503.513,304.448v1.684c0.067,0.077,0.067,0.192,0,0.269v45.945    c-1.322,8.943-7.003,16.645-15.158,20.547L285.037,494.899c-21.571,11.831-47.542,12.459-69.66,1.684L21.425,384.011    c-7.458-3.47-12.584-10.559-13.541-18.728c-0.067-0.627-0.067-1.259,0-1.886l-1.415-1.011v-48.168l1.954-0.067    c2.355-7.481,7.625-13.698,14.619-17.246l203.386-122.004c3.97-2.388,8.225-4.267,12.664-5.592l47.495-1.347    c4.244,2.358,9.229,5.12,9.431,5.255l193.886,112.573C497.338,289.265,502.473,296.307,503.513,304.448z" fill="#b3b3b3" data-original="#7facfa" class=""/>
		<path style="" d="M286.587,167.96c4.244,2.358,9.229,5.12,9.432,5.255l193.886,112.573    c18.796,10.914,18.122,29.305-1.549,41.162L285.037,448.886c-21.553,11.898-47.556,12.527-69.659,1.684L21.424,338.065    c-18.728-10.981-18.055-29.373,1.617-41.162l203.385-122.004c3.97-2.388,8.226-4.267,12.665-5.592" fill="#ebebeb" data-original="#e3e7f2" class=""/>
		<path style="" d="M286.567,227.157c22.567,1.226,44.58,7.456,64.443,18.237    c45.823,26.666,44.06,71.569-4.061,100.457c-48.045,28.888-124.211,30.651-170.111,4.061    c-45.899-26.666-44.06-71.646,3.985-100.457c18.42-10.619,38.712-17.592,59.769-20.536L286.567,227.157z" fill="#d1d1d1" data-original="#d4e1f4" class=""/>
		<path style="" d="M286.567,234.284c13.203,1.435,25.99,5.471,37.624,11.877c31.723,18.39,30.421,49.577-2.759,69.5    c-33.256,19.999-86.128,21.226-117.775,2.835c-31.723-18.39-30.497-49.577,2.759-69.577c10.594-6.151,22.147-10.477,34.175-12.797    L286.567,234.284z" fill="#b3b3b3" data-original="#7facfa" class=""/>
		<g>
			<path style="" d="M240.592,141.185v132.745c0,12.696,10.292,22.988,22.988,22.988     c12.696,0,22.988-10.292,22.988-22.988V141.185C271.324,143.427,255.835,143.427,240.592,141.185z" fill="#ebebeb" data-original="#e3e7f2" class=""/>
			<path style="" d="M503.513,304.516c0.067,0.537,0.067,1.08,0,1.617" fill="#ebebeb" data-original="#e3e7f2" class=""/>
			<circle style="" cx="263.569" cy="83.608" r="77.871" fill="#ebebeb" data-original="#e3e7f2" class=""/>
			<path style="" d="M237.497,402.012c-10.237,6.142-10.62,15.716-0.855,21.384     c11.491,5.628,25.004,5.308,36.215-0.859c10.237-6.142,10.62-15.716,0.855-21.384     C262.221,395.525,248.709,395.845,237.497,402.012z" fill="#ebebeb" data-original="#e3e7f2" class=""/>
			<path style="" d="M90.882,350.059c-0.594,0.001-1.178-0.155-1.691-0.454c-14.197-8.243-22.072-19.625-22.164-32.059     c-0.092-13.355,8.638-25.987,24.599-35.559c1.594-0.947,3.654-0.426,4.607,1.164c0.953,1.591,0.44,3.653-1.147,4.612     c-13.625,8.178-21.395,19.013-21.322,29.737c0.072,9.947,6.757,19.283,18.809,26.276c1.319,0.764,1.96,2.318,1.564,3.79     S92.406,350.06,90.882,350.059L90.882,350.059z" fill="#ebebeb" data-original="#e3e7f2" class=""/>
		</g>
		<g>
			<path style="" d="M306.814,181.434h0.019c3.183,1.768,6.783,3.764,8.469,4.708c0.563,0.315,0.911,0.513,0.962,0.546     l181.768,105.537l-0.011-0.013c-0.15-0.164-0.322-0.322-0.478-0.485c-0.594-0.622-1.206-1.238-1.89-1.835l-0.057-0.046     c-1.764-1.531-3.671-2.89-5.693-4.059l-183.09-106.304V181.434z" fill="#ffffff" data-original="#ffffff" class=""/>
			<path style="" d="M231.155,154.362c-28.253-25.883-33.452-68.484-12.252-100.401s62.484-43.644,97.297-27.637     c-22.624-20.809-55.377-26.351-83.587-14.142c-28.21,12.209-46.589,39.88-46.905,70.616     C185.394,113.535,203.202,141.577,231.155,154.362L231.155,154.362z" fill="#ffffff" data-original="#ffffff" class=""/>
			<path style="" d="M240.592,161.791v7.474l-1.5,0.042c-2.255,0.666-4.464,1.482-6.61,2.442     c-2.078,0.93-4.1,1.981-6.054,3.15L23.041,296.903c-1.723,1.042-3.374,2.199-4.94,3.465c-0.311,0.249-0.632,0.492-0.929,0.745     c-1.31,1.106-2.533,2.311-3.658,3.604c-0.22,0.255-0.418,0.514-0.625,0.771c-2.109,2.526-3.641,5.482-4.487,8.662l-1.934,0.067     v48.168l1.415,1.011c-0.067,0.627-0.067,1.259,0,1.886c0.957,8.17,6.083,15.259,13.541,18.728l12.109,7.028     c-3.201-3.324-5.117-7.677-5.405-12.283c-0.067-0.627-0.067-1.259,0-1.886l0.52-49.246c0.846-3.18,2.377-6.137,4.487-8.662     c0.207-0.258,0.405-0.516,0.625-0.771c1.126-1.293,2.348-2.498,3.658-3.604c0.296-0.253,0.618-0.496,0.929-0.745     c1.566-1.266,3.216-2.423,4.939-3.465l203.387-122.004L240.592,161.791z" fill="#ffffff" data-original="#ffffff" class=""/>
		</g>
	</g>
	<g>
		<polygon style="" points="230.892,181.679 155.789,226.728 27.506,303.683 20.574,292.123 148.857,215.175     223.959,170.119   " fill="#ffffff" data-original="#ffffff" class=""/>
		<g>
			<path style="" d="M198.541,193.227c1.921,3.181,6.05,4.214,9.243,2.311l23.108-13.862l-6.931-11.554l-23.109,13.862     C197.671,185.905,196.639,190.034,198.541,193.227z" fill="#999999" data-original="#428dff" class=""/>
			<path style="" d="M20.576,292.126l6.931,11.554l134.06-80.418c2.064-1.238,3.311-3.484,3.27-5.89     c-0.04-2.407-1.362-4.609-3.466-5.777c-2.104-1.168-4.672-1.125-6.736,0.113L20.576,292.126z" fill="#999999" data-original="#428dff" class=""/>
			<path style="" d="M184.675,209.4c1.516-0.94,2.622-2.417,3.097-4.136l0.174-1.282     c0.026-0.454-0.008-0.909-0.103-1.354c-0.03-0.428-0.125-0.848-0.28-1.247c-0.164-0.421-0.356-0.829-0.576-1.223     c-0.939-1.517-2.416-2.623-4.136-3.096c-2.191-0.592-4.533-0.023-6.209,1.507c-1.676,1.53-2.455,3.81-2.065,6.046     c0.121,0.873,0.411,1.714,0.856,2.475c0.907,1.546,2.397,2.661,4.136,3.096C181.307,210.619,183.147,210.336,184.675,209.4     L184.675,209.4z" fill="#999999" data-original="#428dff" class=""/>
			<path style="" d="M254.553,435.125c-7.073,0.142-14.063-1.548-20.289-4.908     c-6.079-3.025-10.063-9.082-10.434-15.862c0.397-7.302,4.671-13.832,11.204-17.118c13.319-7.404,29.437-7.746,43.059-0.914     c6.078,3.033,10.061,9.093,10.434,15.875c-0.404,7.299-4.677,13.827-11.204,17.118     C270.38,433.231,262.523,435.235,254.553,435.125z M257.862,404.908c-5.545-0.108-11.023,1.23-15.895,3.882     c-3.454,2.072-4.678,4.184-4.664,5.467c0.007,1.355,1.401,2.96,3.724,4.309c9.37,4.361,20.244,4.063,29.362-0.803     c3.454-2.072,4.671-4.184,4.664-5.467c-0.007-1.355-1.401-2.967-3.724-4.322C267.172,405.83,262.538,404.775,257.862,404.908z" fill="#999999" data-original="#428dff" class=""/>
			<path style="" d="M91.876,354.428c-1.186,0.001-2.35-0.312-3.375-0.908c-15.276-8.868-23.737-21.276-23.842-34.947     c-0.105-14.599,9.211-28.263,26.23-38.474c3.19-1.915,7.329-0.881,9.243,2.309c1.915,3.19,0.881,7.329-2.309,9.243     c-12.579,7.546-19.757,17.322-19.691,26.822c0.066,8.711,6.151,17.02,17.132,23.388c2.637,1.529,3.919,4.639,3.125,7.582     C97.595,352.388,94.924,354.431,91.876,354.428L91.876,354.428z" fill="#999999" data-original="#428dff" class=""/>
			<path style="" d="M227.435,182.638c-3.032,0.004-5.693-2.017-6.502-4.939c-0.809-2.922,0.433-6.024,3.035-7.58     c4.457-2.683,9.236-4.79,14.224-6.27c3.568-1.05,7.312,0.991,8.362,4.559c1.05,3.568-0.991,7.312-4.559,8.362     c-3.895,1.161-7.627,2.812-11.105,4.914C229.844,182.308,228.651,182.637,227.435,182.638z" fill="#999999" data-original="#428dff" class=""/>
			<path style="" d="M248.902,466.072c-12.517,0.254-24.886-2.733-35.908-8.671L19.04,344.895     c-9.825-4.745-16.312-14.437-16.954-25.329c-0.053-10.52,6.513-20.263,18.493-27.441c3.189-1.894,7.309-0.853,9.215,2.329     c1.906,3.182,0.88,7.306-2.294,9.224c-6.429,2.879-10.935,8.85-11.941,15.822c0.763,6.074,4.663,11.299,10.27,13.757     l193.927,112.487c19.988,9.55,43.342,8.946,62.809-1.625l203.322-121.947c6.44-2.897,10.946-8.891,11.941-15.882     c-0.789-6.055-4.705-11.248-10.309-13.671L293.639,180.046c-0.651-0.388-4.092-2.296-7.539-4.211l-1.783-0.987     c-2.12-1.16-3.456-3.366-3.501-5.782c-0.045-2.416,1.207-4.671,3.282-5.909s4.654-1.271,6.759-0.084l1.776,0.987     c4,2.217,7.98,4.454,8.164,4.579l193.487,112.322c9.829,4.695,16.342,14.346,17.02,25.217     c0.086,10.533-6.474,20.309-18.467,27.539L289.507,455.665C277.134,462.672,263.12,466.264,248.902,466.072z" fill="#999999" data-original="#428dff" class=""/>
			<path style="" d="M248.856,512.046c-12.494,0.254-24.842-2.722-35.849-8.638L19.06,390.842     c-9.469-4.581-15.875-13.756-16.914-24.224c-0.097-0.974-0.086-1.956,0.033-2.928c0.169-1.785,1.05-3.426,2.444-4.553     s3.184-1.644,4.964-1.434c1.777,0.187,3.406,1.073,4.53,2.462s1.647,3.169,1.457,4.945c-0.02,0.137-0.022,0.277-0.007,0.414     c0.823,6.019,4.7,11.185,10.25,13.658L219.764,491.75c19.997,9.512,43.335,8.903,62.809-1.638l203.283-121.987     c6.167-2.835,10.596-8.459,11.908-15.118c-0.477-3.769,2.098-7.245,5.842-7.888c1.734-0.316,3.521,0.089,4.95,1.121     c1.429,1.032,2.376,2.601,2.622,4.346c0.147,1.177,0.149,2.368,0.007,3.546c-1.481,11.056-8.385,20.643-18.401,25.553     l-203.283,121.98C277.107,508.653,263.083,512.235,248.856,512.046z" fill="#999999" data-original="#428dff" class=""/>
			<path style="" d="M257.204,376.349c-28.805,0.656-57.295-6.095-82.743-19.605     c-23.48-13.638-36.487-32.54-36.632-53.224c-0.151-22.178,14.243-43.079,40.526-58.842     c19.171-11.072,40.298-18.343,62.223-21.414c3.672-0.55,7.097,1.976,7.655,5.647c0.559,3.671-1.959,7.101-5.629,7.669     c-20.189,2.812-39.649,9.483-57.316,19.651c-21.717,13.026-34.105,30.224-33.987,47.197c0.112,15.724,10.737,30.52,29.914,41.664     c43.974,25.447,117.217,23.664,163.257-4.02c21.743-13.046,34.145-30.257,34.033-47.211     c-0.112-15.704-10.724-30.493-29.888-41.645c-18.975-10.28-40.002-16.204-61.553-17.342c-1.782-0.132-3.438-0.967-4.604-2.321     c-1.166-1.354-1.746-3.115-1.613-4.896c0.101-1.794,0.927-3.469,2.288-4.641c1.361-1.172,3.14-1.741,4.929-1.576     c23.583,1.283,46.581,7.817,67.316,19.125c23.46,13.651,36.454,32.546,36.592,53.204c0.151,22.164-14.25,43.066-40.559,58.855     C322.647,368.687,290.149,376.871,257.204,376.349z" fill="#999999" data-original="#428dff" class=""/>
			<path style="" d="M259.54,339.158c-20.29,0.472-40.359-4.296-58.27-13.842     c-16.875-9.783-26.237-23.474-26.362-38.559c-0.125-16.138,10.184-31.27,29.033-42.612c11.255-6.54,23.529-11.143,36.309-13.618     c3.644-0.741,7.2,1.612,7.941,5.257c0.741,3.644-1.612,7.2-5.257,7.941c-11.278,2.172-22.113,6.219-32.053,11.974     c-14.388,8.651-22.586,19.934-22.5,30.954c0.086,10.119,7.066,19.717,19.658,27.013c29.809,17.336,79.566,16.086,110.921-2.783     c14.368-8.625,22.559-19.888,22.474-30.895c-0.072-10.119-7.046-19.71-19.625-27c-10.856-5.951-22.783-9.696-35.092-11.02     c-2.388-0.303-4.433-1.857-5.364-4.077c-0.931-2.22-0.608-4.768,0.849-6.684c1.457-1.916,3.825-2.91,6.213-2.607     c14.097,1.556,27.747,5.884,40.164,12.737c16.862,9.776,26.217,23.467,26.329,38.546c0.125,15.901-10.447,31.408-29.007,42.553     C305.639,333.753,282.747,339.522,259.54,339.158z" fill="#999999" data-original="#428dff" class=""/>
			<path style="" d="M264.579,169.224c-46.73,0-84.612-37.882-84.612-84.612S217.85,0,264.579,0     s84.612,37.882,84.612,84.612C349.14,131.321,311.288,169.173,264.579,169.224z M264.579,13.474     c-39.289,0-71.138,31.85-71.138,71.138s31.85,71.138,71.138,71.138s71.138-31.85,71.138-71.138     C335.672,45.342,303.849,13.52,264.579,13.474z" fill="#999999" data-original="#428dff" class=""/>
			<path style="" d="M218.606,88.855c-1.787,0.001-3.501-0.708-4.765-1.972c-1.264-1.264-1.973-2.978-1.972-4.765     c0.028-24.868,20.178-45.021,45.046-45.052c3.721,0,6.737,3.016,6.737,6.737c0,3.721-3.016,6.737-6.737,6.737     c-17.431,0.021-31.555,14.148-31.572,31.579c0.001,1.787-0.709,3.501-1.972,4.765C222.107,88.147,220.393,88.856,218.606,88.855z     " fill="#999999" data-original="#428dff" class=""/>
			<path style="" d="M264.579,304.651c-16.408-0.02-29.704-13.316-29.724-29.724V159.026     c-0.001-2.139,1.015-4.151,2.736-5.421c1.721-1.27,3.944-1.646,5.987-1.013c13.687,4.184,28.313,4.184,42,0     c2.043-0.632,4.266-0.256,5.987,1.013c1.721,1.27,2.737,3.282,2.736,5.421v115.901     C294.284,291.335,280.987,304.632,264.579,304.651z M248.329,167.658v107.27c0,8.975,7.275,16.25,16.25,16.25     c8.975,0,16.25-7.275,16.25-16.25v-107.27C270.096,169.737,259.063,169.737,248.329,167.658z" fill="#999999" data-original="#428dff" class=""/>
			<path style="" d="M7.494,370.132c-1.787,0.001-3.501-0.708-4.765-1.972s-1.973-2.978-1.972-4.765V315.23     c0-3.721,3.016-6.737,6.737-6.737s6.737,3.016,6.737,6.737v48.164c0.001,1.787-0.708,3.501-1.972,4.765     S9.281,370.133,7.494,370.132z" fill="#999999" data-original="#428dff" class=""/>
			<path style="" d="M504.494,360.099c-1.787,0.001-3.501-0.708-4.765-1.972c-1.264-1.264-1.973-2.978-1.972-4.765     v-47.888c0-3.721,3.016-6.737,6.737-6.737s6.737,3.016,6.737,6.737v47.888c0.001,1.787-0.708,3.501-1.972,4.765     S506.281,360.1,504.494,360.099z" fill="#999999" data-original="#428dff" class=""/>
		</g>
	</g>
</g>
<g xmlns="http://www.w3.org/2000/svg">
</g>
<g xmlns="http://www.w3.org/2000/svg">
</g>
<g xmlns="http://www.w3.org/2000/svg">
</g>
<g xmlns="http://www.w3.org/2000/svg">
</g>
<g xmlns="http://www.w3.org/2000/svg">
</g>
<g xmlns="http://www.w3.org/2000/svg">
</g>
<g xmlns="http://www.w3.org/2000/svg">
</g>
<g xmlns="http://www.w3.org/2000/svg">
</g>
<g xmlns="http://www.w3.org/2000/svg">
</g>
<g xmlns="http://www.w3.org/2000/svg">
</g>
<g xmlns="http://www.w3.org/2000/svg">
</g>
<g xmlns="http://www.w3.org/2000/svg">
</g>
<g xmlns="http://www.w3.org/2000/svg">
</g>
<g xmlns="http://www.w3.org/2000/svg">
</g>
<g xmlns="http://www.w3.org/2000/svg">
</g>
</g></svg>
